<?xml version="1.0" encoding="utf-8"?>
<svg xmlns="http://www.w3.org/2000/svg" xmlns:xlink="http://www.w3.org/1999/xlink" style="margin: auto; background: rgb(1, 44, 50); display: block; z-index: 1; position: relative; shape-rendering: auto;" width="1728" height="926" preserveAspectRatio="xMidYMid" viewBox="0 0 1728 926">
<g transform="translate(864,463) scale(1,1) translate(-864,-463)"><path d="M-100 539.09C-67.03 537.14 -66.66 547.18 -37.81 547.18S-5.96 538.47 24.39 538.47S57.11 548.15 86.58 548.15S119.98 538.66 148.77 538.66S180.73 549.28 210.97 549.28S244.19 540.26 273.16 540.26S304.69 544.72 335.35 544.72S366.98 544.68 397.55 544.68S430.09 548.63 459.74 548.63S492.52 553.83 521.94 553.83S553.4 554.19 584.13 554.19S616.94 543.09 646.32 543.09S677.68 548.95 708.52 548.95S741.3 555.42 770.71 555.42S802.14 541.02 832.9 541.02S865.97 559.26 895.1 559.26S927.55 548.05 957.29 548.05S988.92 551.25 1019.48 551.25S1051.12 554.59 1081.68 554.59S1113.94 555.46 1143.87 555.46S1177.2 542.72 1206.06 542.72S1237.82 540.38 1268.26 540.38S1300.41 537.5 1330.45 537.5S1362.9 546.28 1392.65 546.28S1425.84 542.97 1454.84 542.97S1487.96 558.76 1517.03 558.76S1549.05 541.31 1579.23 541.31S1610.57 553.17 1641.42 553.17S1673.45 554.87 1703.61 554.87S1734.77 557.97 1765.81 557.97S1798.32 541.38 1828 541.38S1859.63 542.87 1890.19 542.87L1828 926 L-100 926 Z" fill="#0f3135" stroke-width="0">
  <animate attributeName="d" dur="25s" repeatCount="indefinite" values="M-100 539.09C-67.03 537.14 -66.66 547.18 -37.81 547.18S-5.96 538.47 24.39 538.47S57.11 548.15 86.58 548.15S119.98 538.66 148.77 538.66S180.73 549.28 210.97 549.28S244.19 540.26 273.16 540.26S304.69 544.72 335.35 544.72S366.98 544.68 397.55 544.68S430.09 548.63 459.74 548.63S492.52 553.83 521.94 553.83S553.4 554.19 584.13 554.19S616.94 543.09 646.32 543.09S677.68 548.95 708.52 548.95S741.3 555.42 770.71 555.42S802.14 541.02 832.9 541.02S865.97 559.26 895.1 559.26S927.55 548.05 957.29 548.05S988.92 551.25 1019.48 551.25S1051.12 554.59 1081.68 554.59S1113.94 555.46 1143.87 555.46S1177.2 542.72 1206.06 542.72S1237.82 540.38 1268.26 540.38S1300.41 537.5 1330.45 537.5S1362.9 546.28 1392.65 546.28S1425.84 542.97 1454.84 542.97S1487.96 558.76 1517.03 558.76S1549.05 541.31 1579.23 541.31S1610.57 553.17 1641.42 553.17S1673.45 554.87 1703.61 554.87S1734.77 557.97 1765.81 557.97S1798.32 541.38 1828 541.38S1859.63 542.87 1890.19 542.87L1828 926 L-100 926 Z;M-100 538.86C-67.48 555.07 -68.57 558.42 -37.81 558.42S-6.39 554.68 24.39 554.68S57.4 547.8 86.58 547.8S118.71 537.79 148.77 537.79S180.86 554.32 210.97 554.32S243.62 546.83 273.16 546.83S304.33 551.27 335.35 551.27S366.77 557.56 397.55 557.56S429.38 547.92 459.74 547.92S492.21 550.1 521.94 550.1S553.91 550.29 584.13 550.29S615.49 538.73 646.32 538.73S679.27 556.67 708.52 556.67S741.26 545.82 770.71 545.82S803.99 553.61 832.9 553.61S866.14 551.76 895.1 551.76S926.83 558.78 957.29 558.78S988.51 550.58 1019.48 550.58S1052.08 542.56 1081.68 542.56S1113.72 556.51 1143.87 556.51S1175.64 558.09 1206.06 558.09S1237.38 553.14 1268.26 553.14S1301.43 556.78 1330.45 556.78S1363.27 549.7 1392.65 549.7S1425.77 553.35 1454.84 553.35S1486.23 546.16 1517.03 546.16S1548.29 549.66 1579.23 549.66S1612.01 540.57 1641.42 540.57S1672.62 544.15 1703.61 544.15S1734.97 551.77 1765.81 551.77S1798.33 560.22 1828 560.22S1859.9 548.71 1890.19 548.71L1828 926 L-100 926 Z;M-100 539.09C-67.03 537.14 -66.66 547.18 -37.81 547.18S-5.96 538.47 24.39 538.47S57.11 548.15 86.58 548.15S119.98 538.66 148.77 538.66S180.73 549.28 210.97 549.28S244.19 540.26 273.16 540.26S304.69 544.72 335.35 544.72S366.98 544.68 397.55 544.68S430.09 548.63 459.74 548.63S492.52 553.83 521.94 553.83S553.4 554.19 584.13 554.19S616.94 543.09 646.32 543.09S677.68 548.95 708.52 548.95S741.3 555.42 770.71 555.42S802.14 541.02 832.9 541.02S865.97 559.26 895.1 559.26S927.55 548.05 957.29 548.05S988.92 551.25 1019.48 551.25S1051.12 554.59 1081.68 554.59S1113.94 555.46 1143.87 555.46S1177.2 542.72 1206.06 542.72S1237.82 540.38 1268.26 540.38S1300.41 537.5 1330.45 537.5S1362.9 546.28 1392.65 546.28S1425.84 542.97 1454.84 542.97S1487.96 558.76 1517.03 558.76S1549.05 541.31 1579.23 541.31S1610.57 553.17 1641.42 553.17S1673.45 554.87 1703.61 554.87S1734.77 557.97 1765.81 557.97S1798.32 541.38 1828 541.38S1859.63 542.87 1890.19 542.87L1828 926 L-100 926 Z"></animate>
  <animateTransform attributeName="transform" type="translate" dur="25s" begin="0s" repeatCount="indefinite" values="0;10;0" calcMode="spline" keySplines="0.3 0 0.7 1;0.3 0 0.7 1"></animateTransform>
</path><path d="M-100 562.57C-67.31 572.12 -67.53 578.91 -36.16 578.91S-2.37 561.19 27.68 561.19S60.18 576.47 91.52 576.47S123.94 572.29 155.36 572.29S189.02 574.05 219.21 574.05S252.08 560.54 283.05 560.54S315.9 583.26 346.89 583.26S380.17 573.85 410.73 573.85S444.48 582.51 474.57 582.51S508.11 561.31 538.41 561.31S572.49 586.62 602.25 586.62S636.1 573.16 666.09 573.16S698.93 576.4 729.93 576.4S762.91 563.89 793.77 563.89S825.94 567.58 857.62 567.58S890.97 575.98 921.46 575.98S953.87 568.85 985.3 568.85S1017.6 576.82 1049.14 576.82S1082.42 565.76 1112.98 565.76S1145.75 582.69 1176.82 582.69S1210.55 584.92 1240.66 584.92S1274.02 583.35 1304.5 583.35S1338.53 585.47 1368.34 585.47S1402.43 566.6 1432.19 566.6S1465.73 580.41 1496.03 580.41S1529.39 564.56 1559.87 564.56S1591.91 569.58 1623.71 569.58S1656 566.63 1687.55 566.63S1720.23 565.36 1751.39 565.36S1783.54 578.2 1815.23 578.2S1849.11 571.75 1879.07 571.75L1828 926 L-100 926 Z" fill="#254346" stroke-width="0">
  <animate attributeName="d" dur="22.5s" repeatCount="indefinite" values="M-100 562.57C-67.31 572.12 -67.53 578.91 -36.16 578.91S-2.37 561.19 27.68 561.19S60.18 576.47 91.52 576.47S123.94 572.29 155.36 572.29S189.02 574.05 219.21 574.05S252.08 560.54 283.05 560.54S315.9 583.26 346.89 583.26S380.17 573.85 410.73 573.85S444.48 582.51 474.57 582.51S508.11 561.31 538.41 561.31S572.49 586.62 602.25 586.62S636.1 573.16 666.09 573.16S698.93 576.4 729.93 576.4S762.91 563.89 793.77 563.89S825.94 567.58 857.62 567.58S890.97 575.98 921.46 575.98S953.87 568.85 985.3 568.85S1017.6 576.82 1049.14 576.82S1082.42 565.76 1112.98 565.76S1145.75 582.69 1176.82 582.69S1210.55 584.92 1240.66 584.92S1274.02 583.35 1304.5 583.35S1338.53 585.47 1368.34 585.47S1402.43 566.6 1432.19 566.6S1465.73 580.41 1496.03 580.41S1529.39 564.56 1559.87 564.56S1591.91 569.58 1623.71 569.58S1656 566.63 1687.55 566.63S1720.23 565.36 1751.39 565.36S1783.54 578.2 1815.23 578.2S1849.11 571.75 1879.07 571.75L1828 926 L-100 926 Z;M-100 566.64C-66.16 576.58 -66.03 572.11 -36.16 572.11S-3.52 580.24 27.68 580.24S61.75 579.83 91.52 579.83S123.45 568.46 155.36 568.46S187.56 571.54 219.21 571.54S252.56 570.77 283.05 570.77S316.47 573.05 346.89 573.05S379.09 566.22 410.73 566.22S444.92 569.05 474.57 569.05S508.78 582.57 538.41 582.57S572.5 573.44 602.25 573.44S636.36 578.56 666.09 578.56S699.68 565.8 729.93 565.8S763.52 564.3 793.77 564.3S826.07 587.28 857.62 587.28S889.62 575.87 921.46 575.87S953.9 577.99 985.3 577.99S1017.87 576.39 1049.14 576.39S1081.58 565.1 1112.98 565.1S1146.55 567.16 1176.82 567.16S1210.44 569.62 1240.66 569.62S1272.68 576.15 1304.5 576.15S1337.73 574.11 1368.34 574.11S1402.45 568.41 1432.19 568.41S1464.14 579.29 1496.03 579.29S1528.22 572.94 1559.87 572.94S1593.22 584.75 1623.71 584.75S1657.43 587.16 1687.55 587.16S1720.05 575.47 1751.39 575.47S1783.92 576.8 1815.23 576.8S1848.47 567.9 1879.07 567.9L1828 926 L-100 926 Z;M-100 562.57C-67.31 572.12 -67.53 578.91 -36.16 578.91S-2.37 561.19 27.68 561.19S60.18 576.47 91.52 576.47S123.94 572.29 155.36 572.29S189.02 574.05 219.21 574.05S252.08 560.54 283.05 560.54S315.9 583.26 346.89 583.26S380.17 573.85 410.73 573.85S444.48 582.51 474.57 582.51S508.11 561.31 538.41 561.31S572.49 586.62 602.25 586.62S636.1 573.16 666.09 573.16S698.93 576.4 729.93 576.4S762.91 563.89 793.77 563.89S825.94 567.58 857.62 567.58S890.97 575.98 921.46 575.98S953.87 568.85 985.3 568.85S1017.6 576.82 1049.14 576.82S1082.42 565.76 1112.98 565.76S1145.75 582.69 1176.82 582.69S1210.55 584.92 1240.66 584.92S1274.02 583.35 1304.5 583.35S1338.53 585.47 1368.34 585.47S1402.43 566.6 1432.19 566.6S1465.73 580.41 1496.03 580.41S1529.39 564.56 1559.87 564.56S1591.91 569.58 1623.71 569.58S1656 566.63 1687.55 566.63S1720.23 565.36 1751.39 565.36S1783.54 578.2 1815.23 578.2S1849.11 571.75 1879.07 571.75L1828 926 L-100 926 Z"></animate>
  <animateTransform attributeName="transform" type="translate" dur="22.5s" begin="-2.25s" repeatCount="indefinite" values="0;10;0" calcMode="spline" keySplines="0.3 0 0.7 1;0.3 0 0.7 1"></animateTransform>
</path><path d="M-100 601.52C-65.22 595.51 -66.14 600.29 -34.42 600.29S-1.34 604.7 31.16 604.7S65.94 615.29 96.73 615.29S130.01 601.82 162.31 601.82S195.51 614.32 227.89 614.32S262.83 594.63 293.47 594.63S327.69 594.39 359.05 594.39S392.51 591.64 424.63 591.64S459.6 599.71 490.2 599.71S524.5 605.02 555.78 605.02S590.41 601.65 621.36 601.65S656.02 594.78 686.94 594.78S721 587.42 752.52 587.42S786.58 588.81 818.1 588.81S852.01 602.24 883.67 602.24S916.55 587.54 949.25 587.54S983.24 597.63 1014.83 597.63S1049.52 593.5 1080.41 593.5S1115.39 614.26 1145.99 614.26S1179.08 601.03 1211.56 601.03S1244.64 615.4 1277.14 615.4S1311.28 608 1342.72 608S1377.68 593.95 1408.3 593.95S1442.07 604.82 1473.88 604.82S1506.74 605.11 1539.46 605.11S1574.14 586.87 1605.03 586.87S1639.89 595.97 1670.61 595.97S1704.13 594.92 1736.19 594.92S1770.39 601.24 1801.77 601.24S1836.16 610.56 1867.35 610.56L1828 926 L-100 926 Z" fill="#3b5658" stroke-width="0">
  <animate attributeName="d" dur="20s" repeatCount="indefinite" values="M-100 601.52C-65.22 595.51 -66.14 600.29 -34.42 600.29S-1.34 604.7 31.16 604.7S65.94 615.29 96.73 615.29S130.01 601.82 162.31 601.82S195.51 614.32 227.89 614.32S262.83 594.63 293.47 594.63S327.69 594.39 359.05 594.39S392.51 591.64 424.63 591.64S459.6 599.71 490.2 599.71S524.5 605.02 555.78 605.02S590.41 601.65 621.36 601.65S656.02 594.78 686.94 594.78S721 587.42 752.52 587.42S786.58 588.81 818.1 588.81S852.01 602.24 883.67 602.24S916.55 587.54 949.25 587.54S983.24 597.63 1014.83 597.63S1049.52 593.5 1080.41 593.5S1115.39 614.26 1145.99 614.26S1179.08 601.03 1211.56 601.03S1244.64 615.4 1277.14 615.4S1311.28 608 1342.72 608S1377.68 593.95 1408.3 593.95S1442.07 604.82 1473.88 604.82S1506.74 605.11 1539.46 605.11S1574.14 586.87 1605.03 586.87S1639.89 595.97 1670.61 595.97S1704.13 594.92 1736.19 594.92S1770.39 601.24 1801.77 601.24S1836.16 610.56 1867.35 610.56L1828 926 L-100 926 Z;M-100 586.6C-64.92 602.71 -66.62 609.19 -34.42 609.19S0.2 601.97 31.16 601.97S65.18 594.04 96.73 594.04S131.82 601.44 162.31 601.44S197.32 607.84 227.89 607.84S261.17 609.33 293.47 609.33S327.48 610.4 359.05 610.4S394.06 603.77 424.63 603.77S458.05 602.88 490.2 602.88S524.04 603.89 555.78 603.89S589.58 605.11 621.36 605.11S656.17 588.71 686.94 588.71S721.97 597.26 752.52 597.26S785.42 588.2 818.1 588.2S851.29 592.73 883.67 592.73S918.43 604 949.25 604S983.72 583.68 1014.83 583.68S1048.22 584.34 1080.41 584.34S1114.26 610.84 1145.99 610.84S1180.57 590.95 1211.56 590.95S1245.55 595.88 1277.14 595.88S1309.98 596.21 1342.72 596.21S1376.3 609.15 1408.3 609.15S1441.95 597.09 1473.88 597.09S1506.79 595.41 1539.46 595.41S1574.03 599.19 1605.03 599.19S1638.13 614.88 1670.61 614.88S1704.96 595.21 1736.19 595.21S1770.24 610.87 1801.77 610.87S1836.54 588.54 1867.35 588.54L1828 926 L-100 926 Z;M-100 601.52C-65.22 595.51 -66.14 600.29 -34.42 600.29S-1.34 604.7 31.16 604.7S65.94 615.29 96.73 615.29S130.01 601.82 162.31 601.82S195.51 614.32 227.89 614.32S262.83 594.63 293.47 594.63S327.69 594.39 359.05 594.39S392.51 591.64 424.63 591.64S459.6 599.71 490.2 599.71S524.5 605.02 555.78 605.02S590.41 601.65 621.36 601.65S656.02 594.78 686.94 594.78S721 587.42 752.52 587.42S786.58 588.81 818.1 588.81S852.01 602.24 883.67 602.24S916.55 587.54 949.25 587.54S983.24 597.63 1014.83 597.63S1049.52 593.5 1080.41 593.5S1115.39 614.26 1145.99 614.26S1179.08 601.03 1211.56 601.03S1244.64 615.4 1277.14 615.4S1311.28 608 1342.72 608S1377.68 593.95 1408.3 593.95S1442.07 604.82 1473.88 604.82S1506.74 605.11 1539.46 605.11S1574.14 586.87 1605.03 586.87S1639.89 595.97 1670.61 595.97S1704.13 594.92 1736.19 594.92S1770.39 601.24 1801.77 601.24S1836.16 610.56 1867.35 610.56L1828 926 L-100 926 Z"></animate>
  <animateTransform attributeName="transform" type="translate" dur="20s" begin="-4s" repeatCount="indefinite" values="0;10;0" calcMode="spline" keySplines="0.3 0 0.7 1;0.3 0 0.7 1"></animateTransform>
</path><path d="M-100 627.99C-64.41 640.12 -64.42 629.25 -32.59 629.25S1.92 610.52 34.83 610.52S70.26 621.51 102.24 621.51S136.9 623.03 169.65 623.03S204.73 620.92 237.06 620.92S271.26 617.57 304.48 617.57S340.15 643.51 371.89 643.51S407.78 626.23 439.3 626.23S473.51 632.58 506.71 632.58S541.56 639.64 574.13 639.64S608 621.42 641.54 621.42S676.4 621.32 708.95 621.32S743.71 629.36 776.36 629.36S810.54 611.07 843.78 611.07S878.12 641.92 911.19 641.92S946.36 627.23 978.6 627.23S1012.85 640.73 1046.01 640.73S1080.23 608.5 1113.43 608.5S1148.51 634.33 1180.84 634.33S1216.55 611.13 1248.25 611.13S1283.32 641.59 1315.66 641.59S1350.81 621.52 1383.08 621.52S1417.21 626.71 1450.49 626.71S1486.49 628.79 1517.9 628.79S1553.51 631.35 1585.31 631.35S1620.03 628.23 1652.73 628.23S1688.58 638.55 1720.14 638.55S1754.21 634.27 1787.55 634.27S1821.5 625.89 1854.97 625.89L1828 926 L-100 926 Z" fill="#51696b" stroke-width="0">
  <animate attributeName="d" dur="17.5s" repeatCount="indefinite" values="M-100 627.99C-64.41 640.12 -64.42 629.25 -32.59 629.25S1.92 610.52 34.83 610.52S70.26 621.51 102.24 621.51S136.9 623.03 169.65 623.03S204.73 620.92 237.06 620.92S271.26 617.57 304.48 617.57S340.15 643.51 371.89 643.51S407.78 626.23 439.3 626.23S473.51 632.58 506.71 632.58S541.56 639.64 574.13 639.64S608 621.42 641.54 621.42S676.4 621.32 708.95 621.32S743.71 629.36 776.36 629.36S810.54 611.07 843.78 611.07S878.12 641.92 911.19 641.92S946.36 627.23 978.6 627.23S1012.85 640.73 1046.01 640.73S1080.23 608.5 1113.43 608.5S1148.51 634.33 1180.84 634.33S1216.55 611.13 1248.25 611.13S1283.32 641.59 1315.66 641.59S1350.81 621.52 1383.08 621.52S1417.21 626.71 1450.49 626.71S1486.49 628.79 1517.9 628.79S1553.51 631.35 1585.31 631.35S1620.03 628.23 1652.73 628.23S1688.58 638.55 1720.14 638.55S1754.21 634.27 1787.55 634.27S1821.5 625.89 1854.97 625.89L1828 926 L-100 926 Z;M-100 628.57C-65.5 617.44 -66.22 632.68 -32.59 632.68S2.58 607.38 34.83 607.38S68.8 630.55 102.24 630.55S136.27 612 169.65 612S204.42 639.5 237.06 639.5S272.19 619.97 304.48 619.97S339.32 621.53 371.89 621.53S407.55 626.89 439.3 626.89S473.44 622.42 506.71 622.42S541.13 627.56 574.13 627.56S608.38 636.76 641.54 636.76S675.34 614.14 708.95 614.14S743.17 637.16 776.36 637.16S811.84 609.61 843.78 609.61S878.95 641.34 911.19 641.34S946.38 613.5 978.6 613.5S1014.38 640.22 1046.01 640.22S1080.21 613.81 1113.43 613.81S1147.59 625.83 1180.84 625.83S1215.08 641.25 1248.25 641.25S1282.1 624.7 1315.66 624.7S1350.39 608.5 1383.08 608.5S1418.82 628.69 1450.49 628.69S1484.26 608.15 1517.9 608.15S1553.02 633.26 1585.31 633.26S1620.5 618.43 1652.73 618.43S1687.34 627.25 1720.14 627.25S1755.05 618.95 1787.55 618.95S1821.28 638.35 1854.97 638.35L1828 926 L-100 926 Z;M-100 627.99C-64.41 640.12 -64.42 629.25 -32.59 629.25S1.92 610.52 34.83 610.52S70.26 621.51 102.24 621.51S136.9 623.03 169.65 623.03S204.73 620.92 237.06 620.92S271.26 617.57 304.48 617.57S340.15 643.51 371.89 643.51S407.78 626.23 439.3 626.23S473.51 632.58 506.71 632.58S541.56 639.64 574.13 639.64S608 621.42 641.54 621.42S676.4 621.32 708.95 621.32S743.71 629.36 776.36 629.36S810.54 611.07 843.78 611.07S878.12 641.92 911.19 641.92S946.36 627.23 978.6 627.23S1012.85 640.73 1046.01 640.73S1080.23 608.5 1113.43 608.5S1148.51 634.33 1180.84 634.33S1216.55 611.13 1248.25 611.13S1283.32 641.59 1315.66 641.59S1350.81 621.52 1383.08 621.52S1417.21 626.71 1450.49 626.71S1486.49 628.79 1517.9 628.79S1553.51 631.35 1585.31 631.35S1620.03 628.23 1652.73 628.23S1688.58 638.55 1720.14 638.55S1754.21 634.27 1787.55 634.27S1821.5 625.89 1854.97 625.89L1828 926 L-100 926 Z"></animate>
  <animateTransform attributeName="transform" type="translate" dur="17.5s" begin="-5.25s" repeatCount="indefinite" values="0;10;0" calcMode="spline" keySplines="0.3 0 0.7 1;0.3 0 0.7 1"></animateTransform>
</path><path d="M-100 630.54C-64.51 639.52 -64.62 669.7 -30.65 669.7S4.65 648.55 38.71 648.55S73.74 648.4 108.06 648.4S144.25 632.77 177.41 632.77S213.55 651.91 246.76 651.91S283.75 650.7 316.12 650.7S351.73 655.44 385.47 655.44S420.99 644.59 454.82 644.59S490.26 665.37 524.17 665.37S558.86 631.22 593.53 631.22S628.47 639.56 662.88 639.56S698.71 649.35 732.23 649.35S768.44 663.25 801.58 663.25S837 634.68 870.94 634.68S906.09 654.37 940.29 654.37S975.19 649.73 1009.64 649.73S1046.22 657.93 1078.99 657.93S1115.83 637.89 1148.35 637.89S1184.27 662.52 1217.7 662.52S1253.57 666.83 1287.05 666.83S1322.57 631.81 1356.4 631.81S1391.31 650.2 1425.76 650.2S1461.87 660.91 1495.11 660.91S1530.83 646.9 1564.46 646.9S1599.9 662.77 1633.81 662.77S1670.63 657.18 1703.17 657.18S1740.14 661.62 1772.52 661.62S1808.21 663.77 1841.87 663.77L1828 926 L-100 926 Z" fill="#677d7f" stroke-width="0">
  <animate attributeName="d" dur="15s" repeatCount="indefinite" values="M-100 630.54C-64.51 639.52 -64.62 669.7 -30.65 669.7S4.65 648.55 38.71 648.55S73.74 648.4 108.06 648.4S144.25 632.77 177.41 632.77S213.55 651.91 246.76 651.91S283.75 650.7 316.12 650.7S351.73 655.44 385.47 655.44S420.99 644.59 454.82 644.59S490.26 665.37 524.17 665.37S558.86 631.22 593.53 631.22S628.47 639.56 662.88 639.56S698.71 649.35 732.23 649.35S768.44 663.25 801.58 663.25S837 634.68 870.94 634.68S906.09 654.37 940.29 654.37S975.19 649.73 1009.64 649.73S1046.22 657.93 1078.99 657.93S1115.83 637.89 1148.35 637.89S1184.27 662.52 1217.7 662.52S1253.57 666.83 1287.05 666.83S1322.57 631.81 1356.4 631.81S1391.31 650.2 1425.76 650.2S1461.87 660.91 1495.11 660.91S1530.83 646.9 1564.46 646.9S1599.9 662.77 1633.81 662.77S1670.63 657.18 1703.17 657.18S1740.14 661.62 1772.52 661.62S1808.21 663.77 1841.87 663.77L1828 926 L-100 926 Z;M-100 641.66C-64.98 632.07 -63.77 667.49 -30.65 667.49S5.98 640.06 38.71 640.06S74.93 658.16 108.06 658.16S143.44 633.78 177.41 633.78S213.69 649.76 246.76 649.76S283.7 647 316.12 647S351.58 662.31 385.47 662.31S422.02 652.69 454.82 652.69S491.57 634.73 524.17 634.73S560.92 641.6 593.53 641.6S628.39 663.63 662.88 663.63S697.6 647.31 732.23 647.31S768.02 653.71 801.58 653.71S837.15 649.47 870.94 649.47S905.68 659.18 940.29 659.18S976.43 642.35 1009.64 642.35S1044.96 664.46 1078.99 664.46S1114.12 652.31 1148.35 652.31S1183.72 650.24 1217.7 650.24S1252.54 635.93 1287.05 635.93S1322.35 669.76 1356.4 669.76S1392.05 648.36 1425.76 648.36S1461.7 658.6 1495.11 658.6S1530.42 633.26 1564.46 633.26S1600.86 668.02 1633.81 668.02S1670.5 649.67 1703.17 649.67S1739.56 654.31 1772.52 654.31S1807.34 667.07 1841.87 667.07L1828 926 L-100 926 Z;M-100 630.54C-64.51 639.52 -64.62 669.7 -30.65 669.7S4.65 648.55 38.71 648.55S73.74 648.4 108.06 648.4S144.25 632.77 177.41 632.77S213.55 651.91 246.76 651.91S283.75 650.7 316.12 650.7S351.73 655.44 385.47 655.44S420.99 644.59 454.82 644.59S490.26 665.37 524.17 665.37S558.86 631.22 593.53 631.22S628.47 639.56 662.88 639.56S698.71 649.35 732.23 649.35S768.44 663.25 801.58 663.25S837 634.68 870.94 634.68S906.09 654.37 940.29 654.37S975.19 649.73 1009.64 649.73S1046.22 657.93 1078.99 657.93S1115.83 637.89 1148.35 637.89S1184.27 662.52 1217.7 662.52S1253.57 666.83 1287.05 666.83S1322.57 631.81 1356.4 631.81S1391.31 650.2 1425.76 650.2S1461.87 660.91 1495.11 660.91S1530.83 646.9 1564.46 646.9S1599.9 662.77 1633.81 662.77S1670.63 657.18 1703.17 657.18S1740.14 661.62 1772.52 661.62S1808.21 663.77 1841.87 663.77L1828 926 L-100 926 Z"></animate>
  <animateTransform attributeName="transform" type="translate" dur="15s" begin="-6s" repeatCount="indefinite" values="0;10;0" calcMode="spline" keySplines="0.3 0 0.7 1;0.3 0 0.7 1"></animateTransform>
</path><path d="M-100 670.53C-62.14 659.22 -62.73 688.04 -28.59 688.04S8.11 669.88 42.81 669.88S78.8 694.58 114.22 694.58S151.62 667.78 185.63 667.78S223.45 674.01 257.04 674.01S294.54 668.19 328.44 668.19S365.93 685.62 399.85 685.62S436.25 668.09 471.26 668.09S507.19 697.92 542.67 697.92S579.87 653.09 614.07 653.09S650.39 693.38 685.48 693.38S722.45 673.9 756.89 673.9S794.11 681.29 828.3 681.29S865.59 673.03 899.7 673.03S936.55 662.6 971.11 662.6S1007.12 684.89 1042.52 684.89S1080.1 691.69 1113.93 691.69S1151.14 671.37 1185.33 671.37S1222.77 690.09 1256.74 690.09S1293.95 656.56 1328.15 656.56S1364.1 674.39 1399.56 674.39S1437.03 699.02 1470.96 699.02S1506.68 687.14 1542.37 687.14S1579.67 663.96 1613.78 663.96S1650.99 684.25 1685.19 684.25S1723.09 694.15 1756.59 694.15S1792.35 676.62 1828 676.62S1865.9 670.33 1899.41 670.33L1828 926 L-100 926 Z" fill="#7e9193" stroke-width="0">
  <animate attributeName="d" dur="12.5s" repeatCount="indefinite" values="M-100 670.53C-62.14 659.22 -62.73 688.04 -28.59 688.04S8.11 669.88 42.81 669.88S78.8 694.58 114.22 694.58S151.62 667.78 185.63 667.78S223.45 674.01 257.04 674.01S294.54 668.19 328.44 668.19S365.93 685.62 399.85 685.62S436.25 668.09 471.26 668.09S507.19 697.92 542.67 697.92S579.87 653.09 614.07 653.09S650.39 693.38 685.48 693.38S722.45 673.9 756.89 673.9S794.11 681.29 828.3 681.29S865.59 673.03 899.7 673.03S936.55 662.6 971.11 662.6S1007.12 684.89 1042.52 684.89S1080.1 691.69 1113.93 691.69S1151.14 671.37 1185.33 671.37S1222.77 690.09 1256.74 690.09S1293.95 656.56 1328.15 656.56S1364.1 674.39 1399.56 674.39S1437.03 699.02 1470.96 699.02S1506.68 687.14 1542.37 687.14S1579.67 663.96 1613.78 663.96S1650.99 684.25 1685.19 684.25S1723.09 694.15 1756.59 694.15S1792.35 676.62 1828 676.62S1865.9 670.33 1899.41 670.33L1828 926 L-100 926 Z;M-100 670.06C-62.65 657.88 -63.35 698.51 -28.59 698.51S9.1 670.68 42.81 670.68S78.65 696.36 114.22 696.36S150.81 668.37 185.63 668.37S221.85 696.69 257.04 696.69S294.76 670.64 328.44 670.64S364.79 684.62 399.85 684.62S435.8 655.01 471.26 655.01S507.67 679.39 542.67 679.39S579.71 655.81 614.07 655.81S651.94 676.69 685.48 676.69S723.14 655.48 756.89 655.48S793.42 678.82 828.3 678.82S865.09 668 899.7 668S936.76 680.63 971.11 680.63S1008.14 656.26 1042.52 656.26S1079.49 687.39 1113.93 687.39S1151.46 670.23 1185.33 670.23S1223.25 682.95 1256.74 682.95S1292.75 679.11 1328.15 679.11S1365.92 676.33 1399.56 676.33S1435.64 666.05 1470.96 666.05S1507.99 682 1542.37 682S1579.41 677.52 1613.78 677.52S1651.5 696.02 1685.19 696.02S1722.68 657.06 1756.59 657.06S1793.93 680.8 1828 680.8S1865.14 657.12 1899.41 657.12L1828 926 L-100 926 Z;M-100 670.53C-62.14 659.22 -62.73 688.04 -28.59 688.04S8.11 669.88 42.81 669.88S78.8 694.58 114.22 694.58S151.62 667.78 185.63 667.78S223.45 674.01 257.04 674.01S294.54 668.19 328.44 668.19S365.93 685.62 399.85 685.62S436.25 668.09 471.26 668.09S507.19 697.92 542.67 697.92S579.87 653.09 614.07 653.09S650.39 693.38 685.48 693.38S722.45 673.9 756.89 673.9S794.11 681.29 828.3 681.29S865.59 673.03 899.7 673.03S936.55 662.6 971.11 662.6S1007.12 684.89 1042.52 684.89S1080.1 691.69 1113.93 691.69S1151.14 671.37 1185.33 671.37S1222.77 690.09 1256.74 690.09S1293.95 656.56 1328.15 656.56S1364.1 674.39 1399.56 674.39S1437.03 699.02 1470.96 699.02S1506.68 687.14 1542.37 687.14S1579.67 663.96 1613.78 663.96S1650.99 684.25 1685.19 684.25S1723.09 694.15 1756.59 694.15S1792.35 676.62 1828 676.62S1865.9 670.33 1899.41 670.33L1828 926 L-100 926 Z"></animate>
  <animateTransform attributeName="transform" type="translate" dur="12.5s" begin="-6.25s" repeatCount="indefinite" values="0;10;0" calcMode="spline" keySplines="0.3 0 0.7 1;0.3 0 0.7 1"></animateTransform>
</path><path d="M-100 686.32C-60.93 683.23 -61.26 709.5 -26.41 709.5S11.46 678.07 47.18 678.07S85.97 725.07 120.76 725.07S158.53 698.91 194.35 698.91S231.63 725.25 267.94 725.25S304.86 678.19 341.53 678.19S379.64 716.38 415.11 716.38S453.3 691.78 488.7 691.78S527.03 695.03 562.29 695.03S599.44 677.05 635.88 677.05S673.41 714.58 709.47 714.58S748.49 698.04 783.05 698.04S821.79 723.57 856.64 723.57S894.49 690.27 930.23 690.27S969.15 709.5 1003.82 709.5S1040.71 689.78 1077.4 689.78S1114.31 718.68 1150.99 718.68S1188.77 698.8 1224.58 698.8S1262.17 683.65 1298.17 683.65S1335.74 689.58 1371.76 689.58S1410.52 704.47 1445.34 704.47S1484.16 711.7 1518.93 711.7S1556.41 724.78 1592.52 724.78S1631.47 690.83 1666.11 690.83S1704.18 692.88 1739.69 692.88S1778.17 681.48 1813.28 681.48S1850.4 720.03 1886.87 720.03L1828 926 L-100 926 Z" fill="#95a6a7" stroke-width="0">
  <animate attributeName="d" dur="10s" repeatCount="indefinite" values="M-100 686.32C-60.93 683.23 -61.26 709.5 -26.41 709.5S11.46 678.07 47.18 678.07S85.97 725.07 120.76 725.07S158.53 698.91 194.35 698.91S231.63 725.25 267.94 725.25S304.86 678.19 341.53 678.19S379.64 716.38 415.11 716.38S453.3 691.78 488.7 691.78S527.03 695.03 562.29 695.03S599.44 677.05 635.88 677.05S673.41 714.58 709.47 714.58S748.49 698.04 783.05 698.04S821.79 723.57 856.64 723.57S894.49 690.27 930.23 690.27S969.15 709.5 1003.82 709.5S1040.71 689.78 1077.4 689.78S1114.31 718.68 1150.99 718.68S1188.77 698.8 1224.58 698.8S1262.17 683.65 1298.17 683.65S1335.74 689.58 1371.76 689.58S1410.52 704.47 1445.34 704.47S1484.16 711.7 1518.93 711.7S1556.41 724.78 1592.52 724.78S1631.47 690.83 1666.11 690.83S1704.18 692.88 1739.69 692.88S1778.17 681.48 1813.28 681.48S1850.4 720.03 1886.87 720.03L1828 926 L-100 926 Z;M-100 686.6C-62.81 676.92 -63.15 723.2 -26.41 723.2S11.13 685.68 47.18 685.68S85.73 680.13 120.76 680.13S159.59 677.73 194.35 677.73S231.87 713.74 267.94 713.74S306.34 678.5 341.53 678.5S379.4 705.03 415.11 705.03S454.07 686.35 488.7 686.35S525.81 725.31 562.29 725.31S600.13 708.42 635.88 708.42S673.07 704.53 709.47 704.53S747.57 687.88 783.05 687.88S821.32 718.81 856.64 718.81S894.53 680.43 930.23 680.43S968.03 713.2 1003.82 713.2S1040.66 695.03 1077.4 695.03S1115.77 697.93 1150.99 697.93S1190.03 688.48 1224.58 688.48S1261.94 724.48 1298.17 724.48S1337.06 685.09 1371.76 685.09S1409.16 708.06 1445.34 708.06S1484.13 696.91 1518.93 696.91S1557.29 725.75 1592.52 725.75S1630.9 698.83 1666.11 698.83S1702.98 690.11 1739.69 690.11S1776.99 676.56 1813.28 676.56S1850.78 723.39 1886.87 723.39L1828 926 L-100 926 Z;M-100 686.32C-60.93 683.23 -61.26 709.5 -26.41 709.5S11.46 678.07 47.18 678.07S85.97 725.07 120.76 725.07S158.53 698.91 194.35 698.91S231.63 725.25 267.94 725.25S304.86 678.19 341.53 678.19S379.64 716.38 415.11 716.38S453.3 691.78 488.7 691.78S527.03 695.03 562.29 695.03S599.44 677.05 635.88 677.05S673.41 714.58 709.47 714.58S748.49 698.04 783.05 698.04S821.79 723.57 856.64 723.57S894.49 690.27 930.23 690.27S969.15 709.5 1003.82 709.5S1040.71 689.78 1077.4 689.78S1114.31 718.68 1150.99 718.68S1188.77 698.8 1224.58 698.8S1262.17 683.65 1298.17 683.65S1335.74 689.58 1371.76 689.58S1410.52 704.47 1445.34 704.47S1484.16 711.7 1518.93 711.7S1556.41 724.78 1592.52 724.78S1631.47 690.83 1666.11 690.83S1704.18 692.88 1739.69 692.88S1778.17 681.48 1813.28 681.48S1850.4 720.03 1886.87 720.03L1828 926 L-100 926 Z"></animate>
  <animateTransform attributeName="transform" type="translate" dur="10s" begin="-6s" repeatCount="indefinite" values="0;10;0" calcMode="spline" keySplines="0.3 0 0.7 1;0.3 0 0.7 1"></animateTransform>
</path><path d="M-100 712.54C-60.86 702.05 -61.94 743.92 -24.09 743.92S14.75 709.75 51.81 709.75S90.78 752.52 127.72 752.52S167.26 709.31 203.62 709.31S243.4 738.34 279.53 738.34S319.33 704.62 355.43 704.62S393.86 750.57 431.34 750.57S471.38 708.12 507.24 708.12S545.89 704.4 583.15 704.4S621.56 743.65 659.06 743.65S697.21 734.3 734.96 734.3S774.67 720.84 810.87 720.84S849.13 753.06 886.77 753.06S925.56 717.9 962.68 717.9S1000.68 743.49 1038.58 743.49S1077.3 719.88 1114.49 719.88S1153.8 706.59 1190.39 706.59S1228.63 699.42 1266.3 699.42S1305.26 752.12 1342.2 752.12S1382.12 712.67 1418.11 712.67S1457.51 736.67 1494.02 736.67S1533.58 716.84 1569.92 716.84S1608.73 753.01 1645.83 753.01S1685.73 715.72 1721.73 715.72S1761.21 751.54 1797.64 751.54S1836.22 709.02 1873.54 709.02L1828 926 L-100 926 Z" fill="#adbcbc" stroke-width="0">
  <animate attributeName="d" dur="7.5s" repeatCount="indefinite" values="M-100 712.54C-60.86 702.05 -61.94 743.92 -24.09 743.92S14.75 709.75 51.81 709.75S90.78 752.52 127.72 752.52S167.26 709.31 203.62 709.31S243.4 738.34 279.53 738.34S319.33 704.62 355.43 704.62S393.86 750.57 431.34 750.57S471.38 708.12 507.24 708.12S545.89 704.4 583.15 704.4S621.56 743.65 659.06 743.65S697.21 734.3 734.96 734.3S774.67 720.84 810.87 720.84S849.13 753.06 886.77 753.06S925.56 717.9 962.68 717.9S1000.68 743.49 1038.58 743.49S1077.3 719.88 1114.49 719.88S1153.8 706.59 1190.39 706.59S1228.63 699.42 1266.3 699.42S1305.26 752.12 1342.2 752.12S1382.12 712.67 1418.11 712.67S1457.51 736.67 1494.02 736.67S1533.58 716.84 1569.92 716.84S1608.73 753.01 1645.83 753.01S1685.73 715.72 1721.73 715.72S1761.21 751.54 1797.64 751.54S1836.22 709.02 1873.54 709.02L1828 926 L-100 926 Z;M-100 701.56C-61.27 703.84 -61.46 734.33 -24.09 734.33S16.01 718.82 51.81 718.82S92.01 752.65 127.72 752.65S167.18 710.4 203.62 710.4S242.54 752.12 279.53 752.12S319.77 718.08 355.43 718.08S394 702.52 431.34 702.52S470.92 701.71 507.24 701.71S546.23 731.93 583.15 731.93S621.18 700.68 659.06 700.68S698.74 754.55 734.96 754.55S774.99 721.44 810.87 721.44S849.91 738.4 886.77 738.4S927 714.53 962.68 714.53S1001.38 752.67 1038.58 752.67S1077.72 719.88 1114.49 719.88S1153.17 702 1190.39 702S1229.76 719.53 1266.3 719.53S1304.69 735.53 1342.2 735.53S1381 742.21 1418.11 742.21S1456.08 736.17 1494.02 736.17S1534.23 700.81 1569.92 700.81S1609.58 735.79 1645.83 735.79S1684.8 707.24 1721.73 707.24S1761.97 732.75 1797.64 732.75S1836.42 704.44 1873.54 704.44L1828 926 L-100 926 Z;M-100 712.54C-60.86 702.05 -61.94 743.92 -24.09 743.92S14.75 709.75 51.81 709.75S90.78 752.52 127.72 752.52S167.26 709.31 203.62 709.31S243.4 738.34 279.53 738.34S319.33 704.62 355.43 704.62S393.86 750.57 431.34 750.57S471.38 708.12 507.24 708.12S545.89 704.4 583.15 704.4S621.56 743.65 659.06 743.65S697.21 734.3 734.96 734.3S774.67 720.84 810.87 720.84S849.13 753.06 886.77 753.06S925.56 717.9 962.68 717.9S1000.68 743.49 1038.58 743.49S1077.3 719.88 1114.49 719.88S1153.8 706.59 1190.39 706.59S1228.63 699.42 1266.3 699.42S1305.26 752.12 1342.2 752.12S1382.12 712.67 1418.11 712.67S1457.51 736.67 1494.02 736.67S1533.58 716.84 1569.92 716.84S1608.73 753.01 1645.83 753.01S1685.73 715.72 1721.73 715.72S1761.21 751.54 1797.64 751.54S1836.22 709.02 1873.54 709.02L1828 926 L-100 926 Z"></animate>
  <animateTransform attributeName="transform" type="translate" dur="7.5s" begin="-5.25s" repeatCount="indefinite" values="0;10;0" calcMode="spline" keySplines="0.3 0 0.7 1;0.3 0 0.7 1"></animateTransform>
</path><path d="M-100 738.75C-60.68 732.35 -59.04 769.36 -21.63 769.36S17.86 767.83 56.75 767.83S97.39 759.84 135.12 759.84S176.15 726.18 213.5 726.18S254.02 775.03 291.87 775.03S332.05 769.32 370.24 769.32S411.27 768.57 448.62 768.57S489.91 743.47 526.99 743.47S566.25 764.56 605.37 764.56S646.45 727.99 683.74 727.99S725.01 770.11 762.11 770.11S801.48 731.58 840.49 731.58S881.29 765.45 918.86 765.45S959.91 742.15 997.24 742.15S1038.57 774.95 1075.61 774.95S1116.16 724.38 1153.98 724.38S1193.67 773.52 1232.36 773.52S1273 738.12 1310.73 738.12S1351.64 726.66 1389.11 726.66S1428.61 745.07 1467.48 745.07S1507.5 775.85 1545.85 775.85S1587.23 744.13 1624.23 744.13S1665.22 762.06 1702.6 762.06S1742.13 724.64 1780.98 724.64S1822.34 780.52 1859.35 780.52L1828 926 L-100 926 Z" fill="#c6d2d2" stroke-width="0">
  <animate attributeName="d" dur="5s" repeatCount="indefinite" values="M-100 738.75C-60.68 732.35 -59.04 769.36 -21.63 769.36S17.86 767.83 56.75 767.83S97.39 759.84 135.12 759.84S176.15 726.18 213.5 726.18S254.02 775.03 291.87 775.03S332.05 769.32 370.24 769.32S411.27 768.57 448.62 768.57S489.91 743.47 526.99 743.47S566.25 764.56 605.37 764.56S646.45 727.99 683.74 727.99S725.01 770.11 762.11 770.11S801.48 731.58 840.49 731.58S881.29 765.45 918.86 765.45S959.91 742.15 997.24 742.15S1038.57 774.95 1075.61 774.95S1116.16 724.38 1153.98 724.38S1193.67 773.52 1232.36 773.52S1273 738.12 1310.73 738.12S1351.64 726.66 1389.11 726.66S1428.61 745.07 1467.48 745.07S1507.5 775.85 1545.85 775.85S1587.23 744.13 1624.23 744.13S1665.22 762.06 1702.6 762.06S1742.13 724.64 1780.98 724.64S1822.34 780.52 1859.35 780.52L1828 926 L-100 926 Z;M-100 722.76C-58.74 723.82 -59.73 764.05 -21.63 764.05S18.49 729.09 56.75 729.09S97.03 781.86 135.12 781.86S174.41 730.52 213.5 730.52S253.59 769.92 291.87 769.92S332.19 732.59 370.24 732.59S411.1 779.41 448.62 779.41S489.48 725.18 526.99 725.18S567.68 735.63 605.37 735.63S644.63 737.42 683.74 737.42S723.37 739.15 762.11 739.15S801.7 723.77 840.49 723.77S880.28 772.12 918.86 772.12S959.76 739.34 997.24 739.34S1038.68 775.56 1075.61 775.56S1115.55 741.16 1153.98 741.16S1194.67 724.36 1232.36 724.36S1271.9 744.87 1310.73 744.87S1352.03 779.6 1389.11 779.6S1430.31 727.32 1467.48 727.32S1508.77 779.47 1545.85 779.47S1585.88 725.53 1624.23 725.53S1664.29 773.56 1702.6 773.56S1742.04 734.19 1780.98 734.19S1820.85 775.04 1859.35 775.04L1828 926 L-100 926 Z;M-100 738.75C-60.68 732.35 -59.04 769.36 -21.63 769.36S17.86 767.83 56.75 767.83S97.39 759.84 135.12 759.84S176.15 726.18 213.5 726.18S254.02 775.03 291.87 775.03S332.05 769.32 370.24 769.32S411.27 768.57 448.62 768.57S489.91 743.47 526.99 743.47S566.25 764.56 605.37 764.56S646.45 727.99 683.74 727.99S725.01 770.11 762.11 770.11S801.48 731.58 840.49 731.58S881.29 765.45 918.86 765.45S959.91 742.15 997.24 742.15S1038.57 774.95 1075.61 774.95S1116.16 724.38 1153.98 724.38S1193.67 773.52 1232.36 773.52S1273 738.12 1310.73 738.12S1351.64 726.66 1389.11 726.66S1428.61 745.07 1467.48 745.07S1507.5 775.85 1545.85 775.85S1587.23 744.13 1624.23 744.13S1665.22 762.06 1702.6 762.06S1742.13 724.64 1780.98 724.64S1822.34 780.52 1859.35 780.52L1828 926 L-100 926 Z"></animate>
  <animateTransform attributeName="transform" type="translate" dur="5s" begin="-4s" repeatCount="indefinite" values="0;10;0" calcMode="spline" keySplines="0.3 0 0.7 1;0.3 0 0.7 1"></animateTransform>
</path><path d="M-100 755.4C-58.13 749.24 -57.3 804.51 -18.99 804.51S23.77 756.5 62.02 756.5S104.28 806.56 143.03 806.56S185.24 765.61 224.03 765.61S264.57 756.94 305.04 756.94S346.97 755.04 386.05 755.04S426.6 806.25 467.06 806.25S508.6 791.89 548.07 791.89S589.07 800.81 629.08 800.81S671.26 766.69 710.08 766.69S751.53 801.64 791.09 801.64S831.63 747.38 872.1 747.38S914.19 799.04 953.11 799.04S994.06 758.97 1034.12 758.97S1076.47 803.18 1115.13 803.18S1155.77 757.77 1196.13 757.77S1237.16 810.07 1277.14 810.07S1317.66 761.25 1358.15 761.25S1399.59 788.86 1439.16 788.86S1481.37 806.03 1520.17 806.03S1560.92 800.72 1601.18 800.72S1642.54 751.42 1682.18 751.42S1723.47 788.9 1763.19 788.9S1805.02 764.54 1844.2 764.54L1828 926 L-100 926 Z" fill="#dfe8e8" stroke-width="0">
  <animate attributeName="d" dur="2.5s" repeatCount="indefinite" values="M-100 755.4C-58.13 749.24 -57.3 804.51 -18.99 804.51S23.77 756.5 62.02 756.5S104.28 806.56 143.03 806.56S185.24 765.61 224.03 765.61S264.57 756.94 305.04 756.94S346.97 755.04 386.05 755.04S426.6 806.25 467.06 806.25S508.6 791.89 548.07 791.89S589.07 800.81 629.08 800.81S671.26 766.69 710.08 766.69S751.53 801.64 791.09 801.64S831.63 747.38 872.1 747.38S914.19 799.04 953.11 799.04S994.06 758.97 1034.12 758.97S1076.47 803.18 1115.13 803.18S1155.77 757.77 1196.13 757.77S1237.16 810.07 1277.14 810.07S1317.66 761.25 1358.15 761.25S1399.59 788.86 1439.16 788.86S1481.37 806.03 1520.17 806.03S1560.92 800.72 1601.18 800.72S1642.54 751.42 1682.18 751.42S1723.47 788.9 1763.19 788.9S1805.02 764.54 1844.2 764.54L1828 926 L-100 926 Z;M-100 756.85C-59 750.81 -58.94 809.97 -18.99 809.97S22.86 759.42 62.02 759.42S103.92 799.42 143.03 799.42S185.14 792.32 224.03 792.32S265.63 800.88 305.04 800.88S345.63 759.15 386.05 759.15S427.7 802.62 467.06 802.62S508.61 757.44 548.07 757.44S590.13 792.94 629.08 792.94S670.4 764.27 710.08 764.27S752.65 752.19 791.09 752.19S833.65 753.54 872.1 753.54S914.7 799.24 953.11 799.24S994.44 790.9 1034.12 790.9S1076.84 788.32 1115.13 788.32S1156.92 764.5 1196.13 764.5S1238.73 806.3 1277.14 806.3S1317.69 759.68 1358.15 759.68S1399.43 805.94 1439.16 805.94S1479.68 746.28 1520.17 746.28S1562.76 797.22 1601.18 797.22S1642.34 754.8 1682.18 754.8S1724.31 800.75 1763.19 800.75S1804.46 749.86 1844.2 749.86L1828 926 L-100 926 Z;M-100 755.4C-58.13 749.24 -57.3 804.51 -18.99 804.51S23.77 756.5 62.02 756.5S104.28 806.56 143.03 806.56S185.24 765.61 224.03 765.61S264.57 756.94 305.04 756.94S346.97 755.04 386.05 755.04S426.6 806.25 467.06 806.25S508.6 791.89 548.07 791.89S589.07 800.81 629.08 800.81S671.26 766.69 710.08 766.69S751.53 801.64 791.09 801.64S831.63 747.38 872.1 747.38S914.19 799.04 953.11 799.04S994.06 758.97 1034.12 758.97S1076.47 803.18 1115.13 803.18S1155.77 757.77 1196.13 757.77S1237.16 810.07 1277.14 810.07S1317.66 761.25 1358.15 761.25S1399.59 788.86 1439.16 788.86S1481.37 806.03 1520.17 806.03S1560.92 800.72 1601.18 800.72S1642.54 751.42 1682.18 751.42S1723.47 788.9 1763.19 788.9S1805.02 764.54 1844.2 764.54L1828 926 L-100 926 Z"></animate>
  <animateTransform attributeName="transform" type="translate" dur="2.5s" begin="-2.25s" repeatCount="indefinite" values="0;10;0" calcMode="spline" keySplines="0.3 0 0.7 1;0.3 0 0.7 1"></animateTransform>
</path></g>
</svg>