<svg width="250" height="250" viewBox="0 0 250 250" fill="none" xmlns="http://www.w3.org/2000/svg">
<circle cx="125" cy="125" r="125" fill="#343232"/>
<path d="M125 226C138.132 226 151.136 223.413 163.268 218.388C175.401 213.362 186.425 205.997 195.711 196.711C204.997 187.425 212.362 176.401 217.388 164.268C222.413 152.136 225 139.132 225 126H221.47C221.47 138.669 218.975 151.213 214.126 162.917C209.278 174.622 202.173 185.256 193.214 194.214C184.256 203.173 173.622 210.278 161.917 215.126C150.213 219.975 137.669 222.47 125 222.47L125 226Z" fill="#4A4747"/>
<path d="M125 26C111.868 26 98.8642 28.5866 86.7317 33.612C74.5991 38.6375 63.5752 46.0035 54.2893 55.2893C45.0035 64.5752 37.6375 75.5991 32.612 87.7317C27.5866 99.8642 25 112.868 25 126L28.5302 126C28.5302 113.331 31.0254 100.787 35.8735 89.0826C40.7216 77.3783 47.8275 66.7436 56.7855 57.7855C65.7436 48.8275 76.3783 41.7216 88.0826 36.8735C99.7869 32.0254 112.331 29.5302 125 29.5302L125 26Z" fill="#4A4747"/>
<path d="M142.998 45.9206C187.267 55.8179 215.131 99.7286 205.234 143.998C195.337 188.267 151.426 216.131 107.157 206.234C62.8874 196.337 35.0233 152.426 44.9206 108.157C54.8179 63.8874 98.7286 36.0233 142.998 45.9206ZM122.794 136.29C128.434 137.551 134.029 134.001 135.29 128.36C136.551 122.72 133.001 117.126 127.36 115.865C121.72 114.604 116.126 118.154 114.865 123.794C113.604 129.434 117.154 135.029 122.794 136.29Z" fill="#3C3939"/>
<circle cx="124.5" cy="125.5" r="57.5" fill="#87D8C8"/>
<circle cx="125" cy="126" r="10" fill="#343232"/>
</svg>
